<svg xmlns="http://www.w3.org/2000/svg" viewBox="0 0 48 48">
  <path d="M29 16.5a10.5 10.5 0 0 0-19.9 4.7A8.5 8.5 0 0 0 10.5 38h18a7.5 7.5 0 0 0 1.4-14.87A10.4 10.4 0 0 0 29 16.5Z" fill="#4285F4"/>
  <path d="M29 16.5c.3 1 .4 2 .4 3.1v.9c3.2.4 5.9 2.8 6.6 6l-1.4.15A7.5 7.5 0 0 1 28.5 38h-4l6.9-12.8A10.4 10.4 0 0 0 29 16.5Z" fill="#EA4335" opacity=".85"/>
  <path d="M10.5 38a8.5 8.5 0 0 1-1.4-16.8l1.3.2A8.6 8.6 0 0 0 16 32.7V38h-5.5Z" fill="#34A853" opacity=".85"/>
  <path d="M16 32.7a8.5 8.5 0 0 0 6-13.3l3-2.7A10.5 10.5 0 0 1 22 38h-6v-5.3Z" fill="#FBBC05" opacity=".85"/>
</svg>
