<svg xmlns="http://www.w3.org/2000/svg" viewBox="0 0 48 48">
  <path d="M44 24c0-1.5-.13-2.94-.38-4.33H24v8.2h11.24c-.49 2.6-1.97 4.8-4.2 6.28v5.2h6.8C41.8 35.4 44 30.2 44 24Z" fill="#4285F4"/>
  <path d="M24 44c5.4 0 9.93-1.79 13.24-4.85l-6.8-5.2C28.63 35.2 26.5 35.9 24 35.9c-5.19 0-9.59-3.5-11.16-8.2H5.8v5.36C9.1 39.7 16 44 24 44Z" fill="#34A853"/>
  <path d="M12.84 27.7a11.9 11.9 0 0 1 0-7.4v-5.36H5.8a20 20 0 0 0 0 18.12l7.04-5.36Z" fill="#FBBC05"/>
  <path d="M24 12.1c2.94 0 5.58 1.01 7.66 3l5.74-5.74C33.9 6.05 29.38 4 24 4 16 4 9.1 8.3 5.8 14.94l7.04 5.36C14.41 15.6 18.81 12.1 24 12.1Z" fill="#EA4335"/>
</svg>
